<mxfile host="app.diagrams.net" modified="2023-09-02T02:51:37.337Z" agent="Mozilla/5.0 (Windows NT 10.0; Win64; x64) AppleWebKit/537.36 (KHTML, like Gecko) Chrome/116.0.0.0 Safari/537.36 Edg/116.0.1938.62" etag="nWOzhBEyOp_fUJG5dZtZ" version="21.7.1" type="github">
  <diagram name="Page-1" id="QPXCyPDGbhKDc-cwEZpC">
    <mxGraphModel dx="1394" dy="795" grid="1" gridSize="10" guides="1" tooltips="1" connect="1" arrows="1" fold="1" page="1" pageScale="1" pageWidth="850" pageHeight="1100" math="0" shadow="0">
      <root>
        <mxCell id="0" />
        <mxCell id="1" parent="0" />
        <mxCell id="Mz7I_LDfuBch1fdVitvF-1" value="Cloud Solution / Data Lakes" style="text;strokeColor=#666666;align=center;fillColor=#f5f5f5;html=1;verticalAlign=middle;whiteSpace=wrap;rounded=0;fontColor=#333333;" vertex="1" parent="1">
          <mxGeometry x="30" y="90" width="200" height="30" as="geometry" />
        </mxCell>
        <mxCell id="Mz7I_LDfuBch1fdVitvF-2" value="&lt;div style=&quot;text-align: left;&quot;&gt;&lt;span style=&quot;background-color: initial;&quot;&gt;- Just throw data into text files (csv, json,) into a big distributed storage system like Amazon S3 ; this is called Data Lake&lt;/span&gt;&lt;/div&gt;&lt;div style=&quot;text-align: left;&quot;&gt;&lt;span style=&quot;background-color: initial;&quot;&gt;- Mostly unstructured data, &quot;big data&quot;&amp;nbsp;&lt;/span&gt;&lt;/div&gt;&lt;div style=&quot;text-align: left;&quot;&gt;&lt;span style=&quot;background-color: initial;&quot;&gt;- Another process (Amazon Glue) can give a structure to the data or create a schema for that data&lt;/span&gt;&lt;/div&gt;&lt;div style=&quot;text-align: left;&quot;&gt;&lt;span style=&quot;background-color: initial;&quot;&gt;- Serverless application that allows you to query that data using SQL - Amazon Athena&lt;/span&gt;&lt;/div&gt;&lt;div style=&quot;text-align: left;&quot;&gt;&lt;span style=&quot;background-color: initial;&quot;&gt;- Amazon Redshift - distributed data warehouse&amp;nbsp;&lt;/span&gt;&lt;/div&gt;&lt;div style=&quot;text-align: left;&quot;&gt;&lt;span style=&quot;background-color: initial;&quot;&gt;- Still, partitioning based on certain use case is still important as best practices - optmize performance from front end. For eg., storing log files on a date wise partiition.&lt;/span&gt;&lt;/div&gt;" style="text;strokeColor=none;align=center;fillColor=none;html=1;verticalAlign=middle;whiteSpace=wrap;rounded=0;" vertex="1" parent="1">
          <mxGeometry x="40" y="150" width="250" height="190" as="geometry" />
        </mxCell>
        <mxCell id="Mz7I_LDfuBch1fdVitvF-10" style="edgeStyle=orthogonalEdgeStyle;rounded=0;orthogonalLoop=1;jettySize=auto;html=1;" edge="1" parent="1" source="Mz7I_LDfuBch1fdVitvF-3" target="Mz7I_LDfuBch1fdVitvF-9">
          <mxGeometry relative="1" as="geometry" />
        </mxCell>
        <mxCell id="Mz7I_LDfuBch1fdVitvF-3" value="Amazon S3 - Simple Storage Service" style="sketch=0;outlineConnect=0;fontColor=#232F3E;gradientColor=none;fillColor=#3F8624;strokeColor=none;dashed=0;verticalLabelPosition=bottom;verticalAlign=top;align=center;html=1;fontSize=12;fontStyle=0;aspect=fixed;pointerEvents=1;shape=mxgraph.aws4.bucket;" vertex="1" parent="1">
          <mxGeometry x="100" y="428" width="75" height="78" as="geometry" />
        </mxCell>
        <mxCell id="Mz7I_LDfuBch1fdVitvF-7" value="Athena" style="sketch=0;points=[[0,0,0],[0.25,0,0],[0.5,0,0],[0.75,0,0],[1,0,0],[0,1,0],[0.25,1,0],[0.5,1,0],[0.75,1,0],[1,1,0],[0,0.25,0],[0,0.5,0],[0,0.75,0],[1,0.25,0],[1,0.5,0],[1,0.75,0]];outlineConnect=0;fontColor=#232F3E;gradientColor=#945DF2;gradientDirection=north;fillColor=#5A30B5;strokeColor=#ffffff;dashed=0;verticalLabelPosition=bottom;verticalAlign=top;align=center;html=1;fontSize=12;fontStyle=0;aspect=fixed;shape=mxgraph.aws4.resourceIcon;resIcon=mxgraph.aws4.athena;" vertex="1" parent="1">
          <mxGeometry x="520" y="350" width="78" height="78" as="geometry" />
        </mxCell>
        <mxCell id="Mz7I_LDfuBch1fdVitvF-8" value="Amazon RedShift" style="sketch=0;points=[[0,0,0],[0.25,0,0],[0.5,0,0],[0.75,0,0],[1,0,0],[0,1,0],[0.25,1,0],[0.5,1,0],[0.75,1,0],[1,1,0],[0,0.25,0],[0,0.5,0],[0,0.75,0],[1,0.25,0],[1,0.5,0],[1,0.75,0]];outlineConnect=0;fontColor=#232F3E;gradientColor=#945DF2;gradientDirection=north;fillColor=#5A30B5;strokeColor=#ffffff;dashed=0;verticalLabelPosition=bottom;verticalAlign=top;align=center;html=1;fontSize=12;fontStyle=0;aspect=fixed;shape=mxgraph.aws4.resourceIcon;resIcon=mxgraph.aws4.redshift;" vertex="1" parent="1">
          <mxGeometry x="520" y="500" width="78" height="78" as="geometry" />
        </mxCell>
        <mxCell id="Mz7I_LDfuBch1fdVitvF-11" style="edgeStyle=orthogonalEdgeStyle;rounded=0;orthogonalLoop=1;jettySize=auto;html=1;" edge="1" parent="1" source="Mz7I_LDfuBch1fdVitvF-9" target="Mz7I_LDfuBch1fdVitvF-7">
          <mxGeometry relative="1" as="geometry" />
        </mxCell>
        <mxCell id="Mz7I_LDfuBch1fdVitvF-12" style="edgeStyle=orthogonalEdgeStyle;rounded=0;orthogonalLoop=1;jettySize=auto;html=1;" edge="1" parent="1" source="Mz7I_LDfuBch1fdVitvF-9" target="Mz7I_LDfuBch1fdVitvF-8">
          <mxGeometry relative="1" as="geometry" />
        </mxCell>
        <mxCell id="Mz7I_LDfuBch1fdVitvF-9" value="AWS Glue" style="sketch=0;points=[[0,0,0],[0.25,0,0],[0.5,0,0],[0.75,0,0],[1,0,0],[0,1,0],[0.25,1,0],[0.5,1,0],[0.75,1,0],[1,1,0],[0,0.25,0],[0,0.5,0],[0,0.75,0],[1,0.25,0],[1,0.5,0],[1,0.75,0]];outlineConnect=0;fontColor=#232F3E;gradientColor=#945DF2;gradientDirection=north;fillColor=#5A30B5;strokeColor=#ffffff;dashed=0;verticalLabelPosition=bottom;verticalAlign=top;align=center;html=1;fontSize=12;fontStyle=0;aspect=fixed;shape=mxgraph.aws4.resourceIcon;resIcon=mxgraph.aws4.glue;" vertex="1" parent="1">
          <mxGeometry x="330" y="428" width="78" height="78" as="geometry" />
        </mxCell>
        <mxCell id="Mz7I_LDfuBch1fdVitvF-13" value="ACID Compliance" style="text;strokeColor=#666666;align=center;fillColor=#f5f5f5;html=1;verticalAlign=middle;whiteSpace=wrap;rounded=0;fontColor=#333333;" vertex="1" parent="1">
          <mxGeometry x="40" y="710" width="120" height="30" as="geometry" />
        </mxCell>
        <mxCell id="Mz7I_LDfuBch1fdVitvF-14" value="Atomicity - Either the entire transaction fails or passes" style="text;strokeColor=none;align=left;fillColor=none;html=1;verticalAlign=middle;whiteSpace=wrap;rounded=0;" vertex="1" parent="1">
          <mxGeometry x="40" y="760" width="170" height="30" as="geometry" />
        </mxCell>
        <mxCell id="Mz7I_LDfuBch1fdVitvF-15" value="Consistency - All DB rules are enforced, or the entire transaction is rolled back" style="text;strokeColor=none;align=left;fillColor=none;html=1;verticalAlign=middle;whiteSpace=wrap;rounded=0;" vertex="1" parent="1">
          <mxGeometry x="250" y="760" width="170" height="30" as="geometry" />
        </mxCell>
        <mxCell id="Mz7I_LDfuBch1fdVitvF-16" value="Isolation - No transaction is affected by any other transaction that is still in progress" style="text;strokeColor=none;align=left;fillColor=none;html=1;verticalAlign=middle;whiteSpace=wrap;rounded=0;" vertex="1" parent="1">
          <mxGeometry x="474" y="760" width="170" height="30" as="geometry" />
        </mxCell>
        <mxCell id="Mz7I_LDfuBch1fdVitvF-17" value="Durability - Once a transaction is committed, it stays, even if the system crashes immediately after" style="text;strokeColor=none;align=left;fillColor=none;html=1;verticalAlign=middle;whiteSpace=wrap;rounded=0;" vertex="1" parent="1">
          <mxGeometry x="720" y="760" width="170" height="30" as="geometry" />
        </mxCell>
        <mxCell id="Mz7I_LDfuBch1fdVitvF-18" value="The CAP Theorem" style="text;strokeColor=#666666;align=center;fillColor=#f5f5f5;html=1;verticalAlign=middle;whiteSpace=wrap;rounded=0;fontColor=#333333;" vertex="1" parent="1">
          <mxGeometry x="40" y="930" width="120" height="30" as="geometry" />
        </mxCell>
        <mxCell id="Mz7I_LDfuBch1fdVitvF-19" value="Availability" style="rounded=1;whiteSpace=wrap;html=1;fillColor=#e1d5e7;strokeColor=#9673a6;" vertex="1" parent="1">
          <mxGeometry x="380" y="990" width="120" height="60" as="geometry" />
        </mxCell>
        <mxCell id="Mz7I_LDfuBch1fdVitvF-20" value="Consistency" style="rounded=1;whiteSpace=wrap;html=1;fillColor=#e1d5e7;strokeColor=#9673a6;" vertex="1" parent="1">
          <mxGeometry x="130" y="1190" width="120" height="60" as="geometry" />
        </mxCell>
        <mxCell id="Mz7I_LDfuBch1fdVitvF-21" value="Partition Tolerance" style="rounded=1;whiteSpace=wrap;html=1;fillColor=#e1d5e7;strokeColor=#9673a6;" vertex="1" parent="1">
          <mxGeometry x="680" y="1190" width="120" height="60" as="geometry" />
        </mxCell>
        <mxCell id="Mz7I_LDfuBch1fdVitvF-22" value="" style="endArrow=none;html=1;rounded=0;exitX=0.5;exitY=0;exitDx=0;exitDy=0;fillColor=#dae8fc;strokeColor=#6c8ebf;" edge="1" parent="1" source="Mz7I_LDfuBch1fdVitvF-20">
          <mxGeometry width="50" height="50" relative="1" as="geometry">
            <mxPoint x="390" y="1100" as="sourcePoint" />
            <mxPoint x="440" y="1050" as="targetPoint" />
          </mxGeometry>
        </mxCell>
        <mxCell id="Mz7I_LDfuBch1fdVitvF-23" value="" style="endArrow=none;html=1;rounded=0;exitX=1;exitY=0.5;exitDx=0;exitDy=0;entryX=0;entryY=0.5;entryDx=0;entryDy=0;fillColor=#dae8fc;strokeColor=#6c8ebf;" edge="1" parent="1" source="Mz7I_LDfuBch1fdVitvF-20" target="Mz7I_LDfuBch1fdVitvF-21">
          <mxGeometry width="50" height="50" relative="1" as="geometry">
            <mxPoint x="290" y="1240" as="sourcePoint" />
            <mxPoint x="540" y="1100" as="targetPoint" />
          </mxGeometry>
        </mxCell>
        <mxCell id="Mz7I_LDfuBch1fdVitvF-24" value="" style="endArrow=none;html=1;rounded=0;exitX=0.432;exitY=-0.055;exitDx=0;exitDy=0;entryX=0.718;entryY=0.993;entryDx=0;entryDy=0;entryPerimeter=0;exitPerimeter=0;fillColor=#dae8fc;strokeColor=#6c8ebf;" edge="1" parent="1" source="Mz7I_LDfuBch1fdVitvF-21" target="Mz7I_LDfuBch1fdVitvF-19">
          <mxGeometry width="50" height="50" relative="1" as="geometry">
            <mxPoint x="200" y="1200" as="sourcePoint" />
            <mxPoint x="450" y="1060" as="targetPoint" />
          </mxGeometry>
        </mxCell>
        <mxCell id="Mz7I_LDfuBch1fdVitvF-25" value="MySQL" style="text;strokeColor=none;align=center;fillColor=none;html=1;verticalAlign=middle;whiteSpace=wrap;rounded=0;" vertex="1" parent="1">
          <mxGeometry x="250" y="1060" width="60" height="30" as="geometry" />
        </mxCell>
        <mxCell id="Mz7I_LDfuBch1fdVitvF-26" value="Cassandra" style="text;strokeColor=none;align=center;fillColor=none;html=1;verticalAlign=middle;whiteSpace=wrap;rounded=0;" vertex="1" parent="1">
          <mxGeometry x="620" y="1060" width="60" height="30" as="geometry" />
        </mxCell>
        <mxCell id="Mz7I_LDfuBch1fdVitvF-27" value="Apache HBase" style="text;strokeColor=none;align=center;fillColor=none;html=1;verticalAlign=middle;whiteSpace=wrap;rounded=0;" vertex="1" parent="1">
          <mxGeometry x="370" y="1250" width="60" height="30" as="geometry" />
        </mxCell>
        <mxCell id="Mz7I_LDfuBch1fdVitvF-28" value="MongoDB" style="text;strokeColor=none;align=center;fillColor=none;html=1;verticalAlign=middle;whiteSpace=wrap;rounded=0;" vertex="1" parent="1">
          <mxGeometry x="474" y="1250" width="60" height="30" as="geometry" />
        </mxCell>
        <mxCell id="Mz7I_LDfuBch1fdVitvF-29" value="Dynamo DB" style="text;strokeColor=none;align=center;fillColor=none;html=1;verticalAlign=middle;whiteSpace=wrap;rounded=0;" vertex="1" parent="1">
          <mxGeometry x="430" y="1300" width="60" height="30" as="geometry" />
        </mxCell>
        <mxCell id="Mz7I_LDfuBch1fdVitvF-30" value="" style="shape=curlyBracket;whiteSpace=wrap;html=1;rounded=1;flipH=1;labelPosition=right;verticalLabelPosition=middle;align=left;verticalAlign=middle;" vertex="1" parent="1">
          <mxGeometry x="840" y="1190" width="20" height="60" as="geometry" />
        </mxCell>
        <mxCell id="Mz7I_LDfuBch1fdVitvF-31" value="Durability and Scalable" style="text;strokeColor=none;align=center;fillColor=none;html=1;verticalAlign=middle;whiteSpace=wrap;rounded=0;" vertex="1" parent="1">
          <mxGeometry x="900" y="1205" width="80" height="30" as="geometry" />
        </mxCell>
        <mxCell id="Mz7I_LDfuBch1fdVitvF-32" value="- You can have 2 of those, but not three" style="text;strokeColor=none;align=left;fillColor=none;html=1;verticalAlign=middle;whiteSpace=wrap;rounded=0;" vertex="1" parent="1">
          <mxGeometry x="35" y="970" width="140" height="30" as="geometry" />
        </mxCell>
        <mxCell id="Mz7I_LDfuBch1fdVitvF-33" value="" style="shape=curlyBracket;whiteSpace=wrap;html=1;rounded=1;flipH=1;labelPosition=right;verticalLabelPosition=middle;align=left;verticalAlign=middle;rotation=88;" vertex="1" parent="1">
          <mxGeometry x="175" y="1235" width="20" height="120" as="geometry" />
        </mxCell>
        <mxCell id="Mz7I_LDfuBch1fdVitvF-34" value="Write and Read across all the systems are seamless" style="text;strokeColor=none;align=left;fillColor=none;html=1;verticalAlign=middle;whiteSpace=wrap;rounded=0;" vertex="1" parent="1">
          <mxGeometry x="120" y="1330" width="130" height="30" as="geometry" />
        </mxCell>
        <mxCell id="Mz7I_LDfuBch1fdVitvF-35" value="" style="shape=curlyBracket;whiteSpace=wrap;html=1;rounded=1;flipH=1;labelPosition=right;verticalLabelPosition=middle;align=left;verticalAlign=middle;" vertex="1" parent="1">
          <mxGeometry x="560" y="980" width="20" height="60" as="geometry" />
        </mxCell>
        <mxCell id="Mz7I_LDfuBch1fdVitvF-36" value="No Single Point of failure" style="text;strokeColor=none;align=center;fillColor=none;html=1;verticalAlign=middle;whiteSpace=wrap;rounded=0;" vertex="1" parent="1">
          <mxGeometry x="598" y="1000" width="90" height="30" as="geometry" />
        </mxCell>
      </root>
    </mxGraphModel>
  </diagram>
</mxfile>
